<svg width="90" height="90" viewBox="0 0 90 90" fill="none" xmlns="http://www.w3.org/2000/svg">
<g clip-path="url(#clip0_29_111)">
<path d="M45 7.5C30.4875 7.5 18.75 19.2375 18.75 33.75C18.75 40.275 20.625 46.3875 24.0375 51.9C27.6 57.675 32.2875 62.625 35.8875 68.4C37.65 71.2125 38.925 73.8375 40.275 76.875C41.25 78.9375 42.0375 82.5 45 82.5C47.9625 82.5 48.75 78.9375 49.6875 76.875C51.075 73.8375 52.3125 71.2125 54.075 68.4C57.675 62.6625 62.3625 57.7125 65.925 51.9C69.375 46.3875 71.25 40.275 71.25 33.75C71.25 19.2375 59.5125 7.5 45 7.5ZM45 44.0625C39.825 44.0625 35.625 39.8625 35.625 34.6875C35.625 29.5125 39.825 25.3125 45 25.3125C50.175 25.3125 54.375 29.5125 54.375 34.6875C54.375 39.8625 50.175 44.0625 45 44.0625Z" fill="#FD853A"/>
</g>
<defs>
<clipPath id="clip0_29_111">
<rect width="90" height="90" fill="white"/>
</clipPath>
</defs>
</svg>
