<svg width="534" height="147" viewBox="0 0 534 147" fill="none" xmlns="http://www.w3.org/2000/svg">
<path d="M136.834 49.08H156.428V58.6749H136.834V49.08ZM166.932 49.08H186.425V58.6749H166.932V49.08ZM126.33 100.994H136.834V58.6749C131.077 58.6749 126.33 63.3209 126.33 69.0778V100.994ZM166.831 100.994H156.428V58.6749H166.831V100.994ZM196.928 100.994H186.425V58.6749C192.181 58.6749 196.928 63.3209 196.928 69.0778V100.994ZM214.132 49.08H242.21C247.462 49.08 251.704 53.322 251.704 58.6749V71.5018H251.603C251.199 76.3498 247.159 80.0867 242.21 80.0867H215.041V70.4918H241.301V58.6749H215.041V70.4918C209.284 70.4918 204.537 65.8459 204.537 60.0889V58.6749H204.638C204.638 53.322 208.88 49.08 214.132 49.08ZM204.537 90.5906V90.4896C204.537 84.7327 209.284 80.0867 215.041 80.0867V91.4996H249.785V100.994H215.041C207.769 100.994 204.537 96.3476 204.537 90.5906ZM307.144 30.2942V39.4851C307.144 45.5451 302.195 50.494 296.135 50.494V30.2942H307.144ZM269.269 50.494H296.135V60.5939H270.279V91.4996H296.135V60.5939H307.144V91.4996C307.144 96.7516 302.902 100.994 297.65 100.994H270.279C264.219 100.994 259.27 96.5496 259.27 90.4896V60.5939C259.27 55.039 263.714 50.494 269.269 50.494ZM314.693 38.5761V30.6982H325.096V48.979C319.339 48.979 314.693 44.3331 314.693 38.5761ZM325.096 100.994H314.693V51.403H325.096V100.994ZM337.888 49.08H371.42C376.672 49.08 380.914 53.322 380.914 58.5739V91.4996H370.511V79.7837H343.14V91.4996H370.511V100.994H342.231C336.878 100.994 332.636 96.7516 332.636 91.4996V79.7837C332.636 74.5318 336.878 70.2898 342.231 70.2898H370.511V58.5739H337.888V49.08ZM408.452 49.08H428.551V58.6749H398.857C398.857 53.322 403.099 49.08 408.452 49.08ZM398.857 58.6749L398.958 91.2976H428.854V100.893H398.958C393.1 100.893 388.454 96.3476 388.454 90.5906V58.6749H398.857ZM441.633 49.08H475.165C480.417 49.08 484.659 53.322 484.659 58.5739V91.4996H474.256V79.7837H446.885V91.4996H474.256V100.994H445.976C440.623 100.994 436.381 96.7516 436.381 91.4996V79.7837C436.381 74.5318 440.623 70.2898 445.976 70.2898H474.256V58.5739H441.633V49.08ZM502.905 49.08V58.5739H527.246V49.08H502.905ZM492.199 100.994V68.9768C492.199 63.2199 496.946 58.5739 502.703 58.5739V100.994H492.199Z" fill="white"/>
<rect x="0.87207" y="58.5267" width="29.2666" height="29.2666" fill="#FDFDFD"/>
<rect x="88.6718" y="87.7935" width="29.2666" height="29.2666" transform="rotate(180 88.6718 87.7935)" fill="#FDFDFD"/>
<path d="M30.1386 58.5267L59.4052 29.2601V58.5267L30.1386 87.7933V58.5267Z" fill="#BBBBBB"/>
<path d="M59.4052 87.7932L30.1387 117.06L30.1387 87.7932L59.4052 58.5266L59.4052 87.7932Z" fill="#E7E7E7"/>
<path d="M0.871948 58.5267L59.4051 -0.00640869V29.2602L30.1385 58.5267H0.871948Z" fill="#E7E7E7"/>
<path d="M88.6718 87.7934L30.1387 146.327L30.1387 117.06L59.4053 87.7934L88.6718 87.7934Z" fill="#BBBBBB"/>
</svg>
